<svg height="512" viewBox="0 0 512 512" width="512" xmlns="http://www.w3.org/2000/svg"><path d="m256 40-56 24v-48z" fill="#f55648"/><path d="m200 120a8 8 0 0 1 -8-8v-88a8 8 0 0 1 16 0v88a8 8 0 0 1 -8 8z" fill="#8f563b"/><path d="m216 144-8 3.267-112 .733-8-4 112-56 5.443 5.052 9.9 38.127z" fill="#6cbae5"/><path d="m208 408h64v32h-64z" fill="#d18d28"/><path d="m208 344h64v32h-64z" fill="#d18d28"/><path d="m208 208h64v32h-64z" fill="#fd9226"/><path d="m128 208h72v32h-72z" fill="#e08122"/><g fill="#a83b32"><path d="m120 464h-56a8 8 0 0 1 0-16h56a8 8 0 0 1 0 16z"/><path d="m128 432h-48a8 8 0 0 1 0-16h48a8 8 0 0 1 0 16z"/><path d="m144 400h-48a8 8 0 0 1 0-16h48a8 8 0 0 1 0 16z"/><path d="m160 368h-56a8 8 0 0 1 0-16h56a8 8 0 0 1 0 16z"/><path d="m168 336h-48a8 8 0 0 1 0-16h48a8 8 0 0 1 0 16z"/></g><path d="m128 488h-32l80-184v-8h32v8z" fill="#c7463b"/><path d="m56 488h-32l80-184v-8h32v8z" fill="#c7463b"/><path d="m184 304h32v184h-32z" fill="#ea9d2d"/><path d="m264 304h32v184h-32z" fill="#ea9d2d"/><path d="m435.325 480.319-102.65-168.638a16 16 0 0 0 -13.667-7.681h-23.008v-48h20.823a48 48 0 0 1 41.16 23.3l101.01 168.351a17.188 17.188 0 0 0 14.739 8.349 14.268 14.268 0 0 1 14.268 14.268v17.732h-39.008a16 16 0 0 1 -13.667-7.681z" fill="#6cbae5"/><path d="m136 272v-97h-32v97 32h80v-32z" fill="#d18d28"/><path d="m184 175h32v137h-32z" fill="#ea9d2d"/><path d="m264 175h32v137h-32z" fill="#ea9d2d"/><path d="m88 144h129v32h-129z" fill="#4799cf"/><path d="m423.587 328a8 8 0 0 1 -6.931-3.993l-9.263-16a8 8 0 1 1 13.845-8.016l9.264 16a8 8 0 0 1 -6.915 12.009z" fill="#fbedbf"/><path d="m400.008 287.274a8 8 0 0 1 -6.932-3.993l-8-13.818a8 8 0 0 1 13.848-8.017l8 13.819a8 8 0 0 1 -6.916 12.009z" fill="#fbedbf"/><path d="m376 251.186a7.973 7.973 0 0 1 -5.541-2.231 60.524 60.524 0 0 0 -42.125-16.955h-.334a8 8 0 0 1 0-16h.334a76.449 76.449 0 0 1 53.208 21.417 8 8 0 0 1 -5.542 13.769z" fill="#fbedbf"/><path d="m184 272h112v32h-112z" fill="#f3af3e"/><path d="m264 176h32v16h-32z" fill="#d18d28"/><path d="m184 176h32v16h-32z" fill="#d18d28"/><path d="m104 176h32v16h-32z" fill="#c38325"/><path d="m216 144 4.233-5.212 75.767 1.212 16 4v32h-96z" fill="#71c3f0"/><path d="m312 144-112-56 16 56z" fill="#78cfff"/></svg>